<?xml version="1.0" encoding="utf-8"?>
<!-- Generator: Adobe Illustrator 22.1.0, SVG Export Plug-In . SVG Version: 6.00 Build 0)  -->
<svg version="1.1" id="Layer_1" xmlns="http://www.w3.org/2000/svg" xmlns:xlink="http://www.w3.org/1999/xlink" x="0px" y="0px"
	 viewBox="0 0 292 81" style="enable-background:new 0 0 292 81;" xml:space="preserve">
<style type="text/css">
	.st0{enable-background:new    ;}
	.st1{fill:#FFC709;}
	.st2{fill:#FFFFFF;}
</style>
<g class="st0">
	<path class="st1" d="M22.7,16.1H30v25.9h12.6V48H22.7V16.1z"/>
	<path class="st1" d="M60,15.5c4,0,7.3,2,9.5,4.2l-4,4.5c-1.6-1.5-3.1-2.4-5.4-2.4c-4.5,0-7.9,3.9-7.9,10.3c0,6.6,3.1,10.4,7.7,10.4
		c2.6,0,4.5-1.1,6.1-2.8l4,4.4c-2.6,3.1-6.2,4.7-10.1,4.7c-8.3,0-15-5.6-15-16.4C44.7,21.6,51.7,15.5,60,15.5z"/>
	<path class="st1" d="M86.6,15.5c4,0,7.3,2,9.5,4.2l-4,4.5c-1.6-1.5-3.1-2.4-5.4-2.4c-4.5,0-7.9,3.9-7.9,10.3
		c0,6.6,3.1,10.4,7.7,10.4c2.6,0,4.5-1.1,6.1-2.8l4,4.4c-2.6,3.1-6.2,4.7-10.1,4.7c-8.3,0-15-5.6-15-16.4
		C71.3,21.6,78.3,15.5,86.6,15.5z"/>
	<path class="st1" d="M113.2,15.5c4,0,7.3,2,9.5,4.2l-4,4.5c-1.6-1.5-3.1-2.4-5.4-2.4c-4.5,0-7.9,3.9-7.9,10.3
		c0,6.6,3.1,10.4,7.7,10.4c2.6,0,4.5-1.1,6.1-2.8l4,4.4c-2.6,3.1-6.2,4.7-10.1,4.7c-8.3,0-15-5.6-15-16.4
		C97.9,21.6,104.9,15.5,113.2,15.5z"/>
</g>
<g class="st0">
	<path class="st2" d="M138.4,29.5c1.6,0.6,3,1.3,4.2,2c1.1,0.7,2.1,1.4,2.8,2.2c0.7,0.8,1.2,1.6,1.5,2.5c0.3,0.9,0.5,1.9,0.5,3
		c0,1.5-0.3,2.8-0.9,3.9c-0.6,1.2-1.4,2.1-2.4,3c-1,0.8-2.3,1.4-3.7,1.9c-1.4,0.4-3,0.7-4.7,0.7c-1.9,0-3.6-0.3-5.3-0.8
		c-1.7-0.5-3.1-1.1-4.2-1.8l0.3-6.9h3l1,5.7c0.8,0.5,1.6,0.8,2.4,1c0.8,0.2,1.7,0.3,2.8,0.3c2.3,0,4.2-0.5,5.6-1.6
		c1.4-1,2.1-2.5,2.1-4.5c0-0.8-0.1-1.4-0.4-2c-0.2-0.6-0.6-1.1-1.1-1.5c-0.5-0.5-1.1-0.9-1.9-1.3s-1.7-0.8-2.7-1.2l-1.9-0.7
		c-1.3-0.5-2.4-1-3.5-1.7c-1-0.6-1.9-1.3-2.7-2.1c-0.8-0.8-1.3-1.7-1.7-2.7c-0.4-1-0.6-2.1-0.6-3.3c0-1.4,0.3-2.7,0.8-3.8
		c0.6-1.1,1.3-2.1,2.3-2.9c1-0.8,2.1-1.4,3.5-1.9c1.4-0.4,2.8-0.6,4.4-0.6c1.7,0,3.2,0.2,4.5,0.7c1.3,0.5,2.5,1.1,3.6,1.9l-0.3,6.4
		h-3l-1-5.6c-1.2-0.6-2.6-0.9-4-0.9c-1.9,0-3.5,0.5-4.8,1.4c-1.3,0.9-1.9,2.4-1.9,4.3c0,1.6,0.5,2.8,1.4,3.7c1,0.9,2.3,1.7,4.1,2.4
		L138.4,29.5z"/>
	<path class="st2" d="M164.6,45.9c-0.6,0.8-1.4,1.5-2.4,1.9c-1,0.5-2.1,0.7-3.4,0.7c-1.7,0-3.1-0.4-4.1-1.3s-1.5-2.3-1.5-4.2
		c0-0.6,0-1.2,0-1.8c0-0.6,0-1.4,0-2.3V27.4h-4.1v-2.2l4.4-0.5l1.2-6.7h3l-0.2,6.8h6.6v2.6h-6.7v14.9c0,1.3,0.2,2.2,0.7,2.8
		c0.5,0.6,1.1,0.9,2,0.9c1,0,2.1-0.5,3.3-1.4L164.6,45.9z"/>
	<path class="st2" d="M178.2,23.9c1.4,0,2.8,0.3,4.1,0.8c1.4,0.5,2.6,1.3,3.6,2.4c1,1.1,1.9,2.4,2.5,3.9c0.7,1.6,1,3.3,1,5.4
		c0,2-0.3,3.8-1,5.3c-0.6,1.5-1.5,2.8-2.5,3.8c-1.1,1-2.3,1.8-3.6,2.3s-2.7,0.8-4.1,0.8c-1.4,0-2.8-0.3-4.2-0.8s-2.6-1.3-3.6-2.3
		c-1-1-1.9-2.3-2.5-3.8c-0.6-1.5-1-3.3-1-5.3c0-2,0.3-3.8,1-5.4c0.6-1.6,1.5-2.9,2.5-3.9c1.1-1.1,2.3-1.9,3.6-2.4
		C175.4,24.2,176.8,23.9,178.2,23.9z M178.2,26.2c-2.2,0-3.8,0.9-4.9,2.6c-1.1,1.7-1.7,4.3-1.7,7.6c0,3.3,0.6,5.8,1.7,7.5
		c1.1,1.7,2.8,2.6,4.9,2.6c2.1,0,3.8-0.9,4.9-2.6c1.1-1.7,1.7-4.2,1.7-7.5c0-3.3-0.6-5.9-1.7-7.6C182,27.1,180.3,26.2,178.2,26.2z"
		/>
	<path class="st2" d="M201.4,30.2c0.8-2,1.9-3.5,3.2-4.6c1.3-1.1,2.6-1.6,3.9-1.6c0.7,0,1.4,0.2,2.1,0.6c0.7,0.4,1.1,1,1.2,1.8
		c0,0.8-0.3,1.5-0.8,1.9c-0.6,0.5-1.3,0.7-2.1,0.7c-1,0-1.9-0.4-2.8-1.2l-0.3-0.3c-1,0.8-1.9,1.6-2.5,2.7c-0.7,1-1.3,2.3-1.7,3.7
		v3.9c0,1.1,0,2.3,0,3.8s0,2.8,0.1,4l4,0.7V48h-11.9v-1.8l3.5-0.6c0-1.2,0.1-2.6,0.1-4c0-1.5,0-2.7,0-3.8v-2.5c0-1.3,0-2.5,0-3.3
		s-0.1-1.8-0.1-2.8l-3.9-0.4v-1.7l6.8-3l0.7,0.5L201.4,30.2z"/>
	<path class="st2" d="M225.4,46.2V48h-11.4v-1.8l3.7-0.7c0-1.2,0.1-2.6,0.1-4c0-1.5,0-2.7,0-3.8v-2.5c0-1.3,0-2.5,0-3.4
		c0-0.9-0.1-1.8-0.1-2.8l-3.9-0.4v-1.7l7.5-3l0.7,0.5l-0.1,6.7v6.6c0,1.1,0,2.3,0,3.8c0,1.5,0,2.8,0.1,4L225.4,46.2z M219.8,18.7
		c-0.9,0-1.7-0.3-2.4-0.9c-0.6-0.6-0.9-1.4-0.9-2.3c0-0.9,0.3-1.7,0.9-2.3c0.6-0.6,1.4-0.9,2.4-0.9c0.9,0,1.7,0.3,2.4,0.9
		c0.6,0.6,0.9,1.3,0.9,2.3c0,0.9-0.3,1.7-0.9,2.3S220.8,18.7,219.8,18.7z"/>
	<path class="st2" d="M233.7,36.1c0.1,3,0.8,5.4,2.3,7s3.3,2.4,5.7,2.4c1.6,0,2.9-0.3,3.9-1c1-0.7,2-1.5,2.9-2.5l1.2,0.9
		c-0.8,1.8-2.1,3.2-3.7,4.2c-1.6,1-3.5,1.5-5.8,1.5c-1.7,0-3.2-0.3-4.5-0.8c-1.3-0.6-2.5-1.4-3.4-2.4c-0.9-1.1-1.7-2.3-2.2-3.8
		c-0.5-1.5-0.8-3.2-0.8-5s0.3-3.6,0.9-5.1c0.6-1.6,1.4-2.9,2.4-4c1-1.1,2.2-2,3.6-2.6c1.4-0.6,2.8-0.9,4.4-0.9
		c1.3,0,2.5,0.2,3.6,0.6c1.1,0.4,2.1,1,2.9,1.9s1.5,1.8,1.9,3c0.5,1.2,0.7,2.5,0.7,4c0,0.6,0,1.1-0.1,1.5c-0.1,0.5-0.1,0.9-0.2,1.2
		H233.7z M242.7,34c1.2,0,2-0.2,2.4-0.7s0.6-1.1,0.6-1.8c0-0.7-0.1-1.3-0.4-2c-0.3-0.6-0.7-1.2-1.1-1.7c-0.5-0.5-1-0.9-1.7-1.2
		c-0.6-0.3-1.3-0.4-2.1-0.4c-0.7,0-1.4,0.1-2.1,0.4c-0.7,0.3-1.4,0.7-2,1.4s-1.1,1.5-1.6,2.5c-0.4,1-0.7,2.2-0.9,3.6H242.7z"/>
	<path class="st2" d="M264.6,34.4c2.5,0.9,4.2,2,5.2,3.2c1,1.2,1.5,2.6,1.5,4.1c0,0.9-0.2,1.8-0.6,2.6c-0.4,0.8-1,1.6-1.8,2.3
		c-0.8,0.7-1.8,1.2-3,1.6c-1.2,0.4-2.6,0.6-4.1,0.6c-1.4,0-2.7-0.2-3.8-0.5c-1.1-0.3-2.3-0.8-3.6-1.4l-0.1-5.3h2.7l0.9,4.2
		c1.1,0.5,2.5,0.8,4,0.8c1.9,0,3.2-0.3,4.2-1c0.9-0.7,1.4-1.6,1.4-2.7c0-1-0.4-1.9-1.2-2.5c-0.8-0.6-1.9-1.2-3.5-1.8l-2.3-0.8
		c-1.8-0.7-3.2-1.5-4.3-2.6c-1.1-1.1-1.6-2.4-1.6-3.9c0-0.9,0.2-1.8,0.6-2.7c0.4-0.8,1-1.6,1.7-2.3c0.7-0.7,1.6-1.2,2.7-1.6
		c1.1-0.4,2.2-0.6,3.6-0.6c1.3,0,2.5,0.2,3.6,0.5c1.1,0.3,2.2,0.8,3.2,1.5l-0.2,5h-2.5l-0.7-3.9c-1.2-0.6-2.3-0.8-3.4-0.8
		c-1.5,0-2.6,0.3-3.4,1c-0.8,0.6-1.2,1.5-1.2,2.6c0,1,0.3,1.8,1,2.3c0.7,0.6,1.9,1.2,3.6,1.8L264.6,34.4z"/>
</g>
<g class="st0">
	<path class="st2" d="M2.2,62.9h1.7v11.7h5.7V76H2.2V62.9z"/>
	<path class="st2" d="M15.5,66c2.4,0,4.5,1.9,4.5,5.1c0,3.2-2.1,5.1-4.5,5.1c-2.4,0-4.5-1.9-4.5-5.1C11,67.9,13.1,66,15.5,66z
		 M15.5,74.9c1.7,0,2.8-1.5,2.8-3.7c0-2.2-1.1-3.8-2.8-3.8c-1.7,0-2.8,1.5-2.8,3.8C12.7,73.4,13.8,74.9,15.5,74.9z"/>
	<path class="st2" d="M22.7,66.3h1.4l0.1,1.8h0.1c0.7-1.2,1.7-2,2.8-2c0.4,0,0.7,0.1,1,0.2l-0.3,1.4c-0.3-0.1-0.5-0.2-0.9-0.2
		c-0.8,0-1.8,0.6-2.5,2.2V76h-1.6V66.3z"/>
	<path class="st2" d="M34.8,69.8c0-1.2-0.4-2.4-2-2.4c-1.1,0-2.1,0.5-2.9,1l-0.7-1.1c0.9-0.6,2.3-1.3,3.8-1.3c2.4,0,3.4,1.6,3.4,4v6
		h-1.4L35,74.8h0c-0.9,0.8-2,1.4-3.2,1.4c-1.6,0-2.9-1-2.9-2.8C28.8,71.4,30.7,70.3,34.8,69.8z M32.1,74.9c0.9,0,1.7-0.5,2.7-1.3
		v-2.7c-3.3,0.4-4.4,1.2-4.4,2.4C30.4,74.5,31.2,74.9,32.1,74.9z"/>
	<path class="st2" d="M39.4,63.2c0-0.6,0.5-1.1,1.1-1.1c0.6,0,1.1,0.4,1.1,1.1c0,0.6-0.5,1.1-1.1,1.1C39.9,64.3,39.4,63.8,39.4,63.2
		z M39.7,66.3h1.6V76h-1.6V66.3z"/>
	<path class="st2" d="M44.8,66.3h1.4l0.1,1.4h0.1c0.9-0.9,1.9-1.6,3.3-1.6c2,0,3,1.3,3,3.8V76H51v-5.9c0-1.8-0.6-2.6-1.8-2.6
		c-1,0-1.7,0.5-2.7,1.5v7h-1.6V66.3z"/>
	<path class="st2" d="M65.4,62.6c1.6,0,2.8,0.8,3.6,1.6L68,65.3c-0.7-0.7-1.5-1.2-2.6-1.2c-2.5,0-4.2,2-4.2,5.3
		c0,3.3,1.6,5.4,4.1,5.4c1.2,0,2.2-0.5,3-1.5l0.9,1c-1,1.2-2.3,1.9-4,1.9c-3.3,0-5.8-2.5-5.8-6.8C59.5,65.2,62,62.6,65.4,62.6z"/>
	<path class="st2" d="M75.4,66c2.4,0,4.5,1.9,4.5,5.1c0,3.2-2.1,5.1-4.5,5.1c-2.4,0-4.5-1.9-4.5-5.1C70.9,67.9,73.1,66,75.4,66z
		 M75.4,74.9c1.7,0,2.8-1.5,2.8-3.7c0-2.2-1.1-3.8-2.8-3.8c-1.7,0-2.8,1.5-2.8,3.8C72.6,73.4,73.8,74.9,75.4,74.9z"/>
	<path class="st2" d="M82.5,66.3h1.7v5.9c0,1.8,0.5,2.6,1.8,2.6c1,0,1.7-0.5,2.6-1.6v-6.9h1.6V76h-1.4l-0.1-1.5h-0.1
		c-0.9,1.1-1.9,1.8-3.2,1.8c-2.1,0-3-1.3-3-3.8V66.3z"/>
	<path class="st2" d="M93.7,66.3h1.4l0.1,1.4h0.1c0.9-0.9,1.9-1.6,3.3-1.6c2,0,3,1.3,3,3.8V76h-1.6v-5.9c0-1.8-0.6-2.6-1.8-2.6
		c-1,0-1.7,0.5-2.7,1.5v7h-1.6V66.3z"/>
	<path class="st2" d="M105.1,67.6h-1.4v-1.2l1.5-0.1l0.2-2.7h1.4v2.7h2.6v1.3h-2.6V73c0,1.2,0.4,1.9,1.5,1.9c0.3,0,0.8-0.1,1.1-0.3
		l0.3,1.2c-0.5,0.2-1.2,0.4-1.8,0.4c-2.1,0-2.8-1.3-2.8-3.2V67.6z"/>
	<path class="st2" d="M111.9,78.8c1.1,0,1.8-0.9,2.2-2.1l0.2-0.7l-3.9-9.7h1.7l2,5.4c0.3,0.8,0.6,1.8,0.9,2.7h0.1
		c0.3-0.9,0.6-1.9,0.8-2.7l1.7-5.4h1.6l-3.7,10.5c-0.7,1.9-1.7,3.4-3.6,3.4c-0.4,0-0.8-0.1-1.1-0.2l0.3-1.3
		C111.3,78.7,111.6,78.8,111.9,78.8z"/>
	<path class="st2" d="M130.8,62.6c1.6,0,2.8,0.8,3.6,1.6l-0.9,1.1c-0.7-0.7-1.5-1.2-2.6-1.2c-2.5,0-4.2,2-4.2,5.3
		c0,3.3,1.6,5.4,4.1,5.4c1.2,0,2.2-0.5,3-1.5l0.9,1c-1,1.2-2.3,1.9-4,1.9c-3.3,0-5.8-2.5-5.8-6.8C124.9,65.2,127.4,62.6,130.8,62.6z
		"/>
	<path class="st2" d="M140.8,66c2.4,0,4.5,1.9,4.5,5.1c0,3.2-2.1,5.1-4.5,5.1c-2.4,0-4.5-1.9-4.5-5.1C136.3,67.9,138.4,66,140.8,66z
		 M140.8,74.9c1.7,0,2.8-1.5,2.8-3.7c0-2.2-1.1-3.8-2.8-3.8c-1.7,0-2.8,1.5-2.8,3.8C138,73.4,139.2,74.9,140.8,74.9z"/>
	<path class="st2" d="M148.1,66.3h1.4l0.1,1.4h0.1c0.8-0.9,1.9-1.6,3-1.6c1.5,0,2.3,0.7,2.7,1.9c1-1.1,2-1.9,3.2-1.9
		c2,0,3,1.3,3,3.8V76h-1.6v-5.9c0-1.8-0.6-2.6-1.8-2.6c-0.8,0-1.5,0.5-2.4,1.5v7H154v-5.9c0-1.8-0.6-2.6-1.8-2.6
		c-0.7,0-1.5,0.5-2.4,1.5v7h-1.6V66.3z"/>
	<path class="st2" d="M164.8,66.3h1.4l0.1,1.4h0.1c0.8-0.9,1.9-1.6,3-1.6c1.5,0,2.3,0.7,2.7,1.9c1-1.1,2-1.9,3.2-1.9
		c2,0,3,1.3,3,3.8V76h-1.6v-5.9c0-1.8-0.6-2.6-1.8-2.6c-0.8,0-1.5,0.5-2.4,1.5v7h-1.6v-5.9c0-1.8-0.6-2.6-1.8-2.6
		c-0.7,0-1.5,0.5-2.4,1.5v7h-1.6V66.3z"/>
	<path class="st2" d="M181.4,66.3h1.7v5.9c0,1.8,0.5,2.6,1.8,2.6c1,0,1.7-0.5,2.6-1.6v-6.9h1.6V76h-1.4l-0.1-1.5h-0.1
		c-0.9,1.1-1.9,1.8-3.2,1.8c-2.1,0-3-1.3-3-3.8V66.3z"/>
	<path class="st2" d="M192.6,66.3h1.4l0.1,1.4h0.1c0.9-0.9,1.9-1.6,3.3-1.6c2,0,3,1.3,3,3.8V76h-1.6v-5.9c0-1.8-0.6-2.6-1.8-2.6
		c-1,0-1.7,0.5-2.7,1.5v7h-1.6V66.3z"/>
	<path class="st2" d="M203.5,63.2c0-0.6,0.5-1.1,1.1-1.1c0.6,0,1.1,0.4,1.1,1.1c0,0.6-0.5,1.1-1.1,1.1
		C204,64.3,203.5,63.8,203.5,63.2z M203.8,66.3h1.6V76h-1.6V66.3z"/>
	<path class="st2" d="M209.1,67.6h-1.4v-1.2l1.5-0.1l0.2-2.7h1.4v2.7h2.6v1.3h-2.6V73c0,1.2,0.4,1.9,1.5,1.9c0.3,0,0.8-0.1,1.1-0.3
		l0.3,1.2c-0.5,0.2-1.2,0.4-1.8,0.4c-2.1,0-2.8-1.3-2.8-3.2V67.6z"/>
	<path class="st2" d="M215.9,78.8c1.1,0,1.8-0.9,2.2-2.1l0.2-0.7l-3.9-9.7h1.7l2,5.4c0.3,0.8,0.6,1.8,0.9,2.7h0.1
		c0.3-0.9,0.6-1.9,0.8-2.7l1.7-5.4h1.6l-3.7,10.5c-0.7,1.9-1.7,3.4-3.6,3.4c-0.4,0-0.8-0.1-1.1-0.2l0.3-1.3
		C215.3,78.7,215.6,78.8,215.9,78.8z"/>
	<path class="st2" d="M234.7,62.6c1.6,0,2.8,0.8,3.6,1.6l-0.9,1.1c-0.7-0.7-1.5-1.2-2.6-1.2c-2.5,0-4.2,2-4.2,5.3
		c0,3.3,1.6,5.4,4.1,5.4c1.2,0,2.2-0.5,3-1.5l0.9,1c-1,1.2-2.3,1.9-4,1.9c-3.3,0-5.8-2.5-5.8-6.8C228.9,65.2,231.4,62.6,234.7,62.6z
		"/>
	<path class="st2" d="M244.8,66c2.4,0,4.5,1.9,4.5,5.1c0,3.2-2.1,5.1-4.5,5.1c-2.4,0-4.5-1.9-4.5-5.1C240.3,67.9,242.4,66,244.8,66z
		 M244.8,74.9c1.7,0,2.8-1.5,2.8-3.7c0-2.2-1.1-3.8-2.8-3.8c-1.7,0-2.8,1.5-2.8,3.8C242,73.4,243.2,74.9,244.8,74.9z"/>
	<path class="st2" d="M252.1,61.8h1.6v12.4c0,0.5,0.2,0.7,0.5,0.7c0.1,0,0.2,0,0.4,0l0.2,1.2c-0.2,0.1-0.5,0.2-0.9,0.2
		c-1.2,0-1.7-0.8-1.7-2.2V61.8z"/>
	<path class="st2" d="M257.3,61.8h1.6v12.4c0,0.5,0.2,0.7,0.5,0.7c0.1,0,0.2,0,0.4,0l0.2,1.2c-0.2,0.1-0.5,0.2-0.9,0.2
		c-1.2,0-1.7-0.8-1.7-2.2V61.8z"/>
	<path class="st2" d="M266.3,66c2.5,0,3.9,1.8,3.9,4.6c0,0.3,0,0.7-0.1,0.9h-6.6c0.1,2.1,1.4,3.4,3.2,3.4c0.9,0,1.7-0.3,2.4-0.8
		l0.6,1.1c-0.8,0.5-1.9,1-3.2,1c-2.6,0-4.7-1.9-4.7-5.1S264,66,266.3,66z M268.7,70.4c0-2-0.9-3.1-2.4-3.1c-1.4,0-2.6,1.1-2.8,3.1
		H268.7z"/>
	<path class="st2" d="M273.2,75.7L273.2,75.7c-0.5-0.4-0.9-0.9-0.9-1.7c0-0.8,0.6-1.5,1.1-1.8v-0.1c-0.6-0.5-1.3-1.5-1.3-2.6
		c0-2.1,1.7-3.5,3.7-3.5c0.5,0,1,0.1,1.4,0.2h3.4v1.3h-2c0.5,0.4,0.8,1.2,0.8,2c0,2.1-1.6,3.4-3.6,3.4c-0.5,0-1-0.1-1.5-0.3
		c-0.3,0.3-0.6,0.6-0.6,1.2c0,0.6,0.4,1.1,1.7,1.1h1.9c2.3,0,3.4,0.7,3.4,2.3c0,1.8-1.9,3.4-4.9,3.4c-2.4,0-4-0.9-4-2.6
		C271.8,77,272.3,76.3,273.2,75.7z M276,79.3c1.9,0,3.1-1,3.1-2c0-0.9-0.7-1.2-2-1.2h-1.7c-0.4,0-0.8,0-1.3-0.2
		c-0.7,0.5-1,1.1-1,1.6C273.2,78.7,274.3,79.3,276,79.3z M277.9,69.5c0-1.4-0.9-2.3-2.1-2.3c-1.1,0-2.1,0.8-2.1,2.3
		c0,1.4,0.9,2.3,2.1,2.3S277.9,70.9,277.9,69.5z"/>
	<path class="st2" d="M286.1,66c2.5,0,3.9,1.8,3.9,4.6c0,0.3,0,0.7-0.1,0.9h-6.6c0.1,2.1,1.4,3.4,3.2,3.4c0.9,0,1.7-0.3,2.4-0.8
		l0.6,1.1c-0.8,0.5-1.9,1-3.2,1c-2.6,0-4.7-1.9-4.7-5.1S283.9,66,286.1,66z M288.6,70.4c0-2-0.9-3.1-2.4-3.1c-1.4,0-2.6,1.1-2.8,3.1
		H288.6z"/>
</g>
</svg>
