<?xml version="1.0" encoding="utf-8"?>
<!-- Generator: Adobe Illustrator 22.1.0, SVG Export Plug-In . SVG Version: 6.00 Build 0)  -->
<svg version="1.1" id="Layer_1" xmlns="http://www.w3.org/2000/svg" xmlns:xlink="http://www.w3.org/1999/xlink" x="0px" y="0px"
	 viewBox="0 0 59 59" style="enable-background:new 0 0 59 59;" xml:space="preserve">
<style type="text/css">
	.st0{fill:#066C9A;}
	.st1{fill:#97AFC7;}
</style>
<g>
	<path class="st0" d="M31.2,27.4L31.2,27.4C31.2,27.3,31.2,27.3,31.2,27.4L31.2,27.4z"/>
	<path class="st1" d="M0,0v59h59V0H0z M21.4,43.6h-6.3v-19h6.3V43.6z M18.3,22L18.3,22c-2.2,0-3.5-1.5-3.5-3.3
		c0-1.9,1.4-3.3,3.6-3.3c2.2,0,3.5,1.4,3.5,3.3C21.8,20.5,20.5,22,18.3,22z M44.2,43.6h-6.3V33.4c0-2.6-0.9-4.3-3.2-4.3
		c-1.7,0-2.8,1.2-3.2,2.3c-0.2,0.4-0.2,1-0.2,1.5v10.6h-6.3c0,0,0.1-17.2,0-19h6.3v2.7c0.8-1.3,2.3-3.1,5.7-3.1
		c4.2,0,7.3,2.7,7.3,8.6V43.6z"/>
</g>
</svg>
