<svg xmlns="http://www.w3.org/2000/svg" viewBox="0 0 58.416 59.458">
  <defs>
    <style>
      .cls-1 {
        fill: #97afc7;
      }
    </style>
  </defs>
  <path id="Path_73" data-name="Path 73" class="cls-1" d="M0,0V59.459H58.415V0ZM40.821,23.668c.013.262.018.522.018.788,0,8.06-6.028,17.355-17.05,17.355A16.737,16.737,0,0,1,14.6,39.07a11.764,11.764,0,0,0,1.429.084,11.883,11.883,0,0,0,7.441-2.609,6,6,0,0,1-5.6-4.235,5.891,5.891,0,0,0,2.7-.1,6.08,6.08,0,0,1-4.806-5.981v-.076a5.866,5.866,0,0,0,2.714.762,6.179,6.179,0,0,1-1.855-8.142,16.914,16.914,0,0,0,12.351,6.373,6.21,6.21,0,0,1-.155-1.39,6.046,6.046,0,0,1,5.993-6.1A5.944,5.944,0,0,1,39.2,19.579,11.893,11.893,0,0,0,43,18.1a6.1,6.1,0,0,1-2.634,3.372,11.671,11.671,0,0,0,3.441-.959A12.3,12.3,0,0,1,40.821,23.668Z" transform="translate(0 0)"/>
</svg>
